<svg xmlns="http://www.w3.org/2000/svg" width="6587.0684" height="714.4168" viewBox="0 0 6587.0684 714.4168"><rect x="0" y="0" width="6587.0684" height="714.4168" fill="#FFFFFF"/><defs><marker id="arrow-0" viewBox="0 0 10 10" refX="5" refY="5" markerUnits="userSpaceOnUse" markerWidth="8" markerHeight="8" orient="auto"><path d="M 0 0 L 10 5 L 0 10 z" fill="#2F3B4D" stroke="#2F3B4D" stroke-width="1" stroke-dasharray="1,0"/></marker><marker id="arrow-start-0" viewBox="0 0 10 10" refX="4.5" refY="5" markerUnits="userSpaceOnUse" markerWidth="8" markerHeight="8" orient="auto"><path d="M 0 5 L 10 10 L 10 0 z" fill="#2F3B4D" stroke="#2F3B4D" stroke-width="1" stroke-dasharray="1,0"/></marker></defs><rect x="3712.37" y="400.00" width="2866.70" height="306.42" rx="10" ry="10" fill="#FFFFDE" stroke="#AAAA33" stroke-width="1" /><text x="5145.72" y="428.00" text-anchor="middle" font-family="'trebuchet ms', verdana, arial, sans-serif" font-size="16" fill="#333333"><tspan x="5145.72" dy="0.00">Linux Server (ryz7n)</tspan></text><rect x="3724.37" y="412.00" width="1865.77" height="141.40" rx="10" ry="10" fill="#1a1a2e" stroke="#16213e" stroke-width="1" /><text x="4657.25" y="440.00" text-anchor="middle" font-family="'trebuchet ms', verdana, arial, sans-serif" font-size="16" fill="#333333"><tspan x="4657.25" dy="0.00">halfleet/</tspan></text><rect x="5627.15" y="424.00" width="939.91" height="139.40" rx="10" ry="10" fill="#0f3460" stroke="#533483" stroke-width="1" /><text x="6097.11" y="452.00" text-anchor="middle" font-family="'trebuchet ms', verdana, arial, sans-serif" font-size="16" fill="#333333"><tspan x="6097.11" dy="0.00">HAL-prime — systemd</tspan></text><rect x="8.00" y="8.00" width="824.00" height="134.00" rx="10" ry="10" fill="#FFFFDE" stroke="#AAAA33" stroke-width="1" /><text x="420.00" y="36.00" text-anchor="middle" font-family="'trebuchet ms', verdana, arial, sans-serif" font-size="16" fill="#333333"><tspan x="420.00" dy="0.00">Telegram</tspan></text><rect x="4964.27" y="424.00" width="613.86" height="117.40" rx="10" ry="10" fill="#FFFFDE" stroke="#AAAA33" stroke-width="1" /><text x="5271.21" y="452.00" text-anchor="middle" font-family="'trebuchet ms', verdana, arial, sans-serif" font-size="16" fill="#333333"><tspan x="5271.21" dy="0.00">microhal-ben — pm2</tspan></text><rect x="4339.67" y="424.00" width="575.59" height="117.40" rx="10" ry="10" fill="#FFFFDE" stroke="#AAAA33" stroke-width="1" /><text x="4627.46" y="452.00" text-anchor="middle" font-family="'trebuchet ms', verdana, arial, sans-serif" font-size="16" fill="#333333"><tspan x="4627.46" dy="0.00">microhal-dad — pm2</tspan></text><rect x="3736.37" y="424.00" width="554.28" height="117.40" rx="10" ry="10" fill="#FFFFDE" stroke="#AAAA33" stroke-width="1" /><text x="4013.51" y="452.00" text-anchor="middle" font-family="'trebuchet ms', verdana, arial, sans-serif" font-size="16" fill="#333333"><tspan x="4013.51" dy="0.00">microhal-mum — pm2</tspan></text><rect x="420.61" y="222.00" width="178.55" height="112.00" rx="10" ry="10" fill="#FFFFDE" stroke="#AAAA33" stroke-width="1" /><text x="509.89" y="250.00" text-anchor="middle" font-family="'trebuchet ms', verdana, arial, sans-serif" font-size="16" fill="#333333"><tspan x="509.89" dy="0.00">Anthropic API</tspan></text><path id="edge-0" class="edgePath" data-edge-id="edge-0" d="M 802.004,71.760 L 819.160,71.760 L 808.377,71.760 L 808.377,81.242 L 6368.051,81.242 L 6368.051,491.000 L 6385.207,491.000" fill="none" stroke="#2F3B4D" stroke-width="2"    stroke-linecap="round" stroke-linejoin="round" /><rect data-edge-id="edge-0" data-label-kind="center" x="3747.84" y="67.04" width="70.24" height="28.40" rx="2" ry="2" fill="rgba(248,250,252, 0.92)" fill-opacity="0.95" stroke="#7B88A8" stroke-opacity="0.45" stroke-width="0.8"/><g class="edgeLabel" data-edge-id="edge-0" data-label-kind="center"><text x="3782.96" y="85.24" text-anchor="middle" font-family="'trebuchet ms', verdana, arial, sans-serif" font-size="16" fill="#333333"><tspan x="3782.96" dy="0.00">messages</tspan></text></g><path id="edge-1" class="edgePath" data-edge-id="edge-1" d="M 802.004,78.240 L 819.160,78.240 L 829.944,78.240 L 829.944,60.664 L 819.160,60.664 L 5326.880,60.664 L 5326.880,472.282 L 5344.036,472.282" fill="none" stroke="#2F3B4D" stroke-width="2"    stroke-linecap="round" stroke-linejoin="round" /><rect data-edge-id="edge-1" data-label-kind="center" x="3227.96" y="46.46" width="62.59" height="28.40" rx="2" ry="2" fill="rgba(248,250,252, 0.92)" fill-opacity="0.95" stroke="#7B88A8" stroke-opacity="0.45" stroke-width="0.8"/><g class="edgeLabel" data-edge-id="edge-1" data-label-kind="center"><text x="3259.26" y="64.66" text-anchor="middle" font-family="'trebuchet ms', verdana, arial, sans-serif" font-size="16" fill="#333333"><tspan x="3259.26" dy="0.00">testing</tspan></text></g><path id="edge-2" class="edgePath" data-edge-id="edge-2" d="M 802.004,84.720 L 819.160,84.720 L 797.593,84.720 L 797.593,64.415 L 4702.274,64.415 L 4702.274,472.510 L 4719.430,472.510" fill="none" stroke="#2F3B4D" stroke-width="2"    stroke-linecap="round" stroke-linejoin="round" /><rect data-edge-id="edge-2" data-label-kind="center" x="2901.75" y="50.21" width="62.59" height="28.40" rx="2" ry="2" fill="rgba(248,250,252, 0.92)" fill-opacity="0.95" stroke="#7B88A8" stroke-opacity="0.45" stroke-width="0.8"/><g class="edgeLabel" data-edge-id="edge-2" data-label-kind="center"><text x="2933.04" y="68.41" text-anchor="middle" font-family="'trebuchet ms', verdana, arial, sans-serif" font-size="16" fill="#333333"><tspan x="2933.04" dy="0.00">testing</tspan></text></g><path id="edge-3" class="edgePath" data-edge-id="edge-3" d="M 802.004,91.200 L 819.160,91.200 L 819.160,118.334 L 4098.974,118.334 L 4098.974,472.343 L 4116.130,472.343" fill="none" stroke="#2F3B4D" stroke-width="2"    stroke-linecap="round" stroke-linejoin="round" /><rect data-edge-id="edge-3" data-label-kind="center" x="2591.21" y="104.13" width="62.59" height="28.40" rx="2" ry="2" fill="rgba(248,250,252, 0.92)" fill-opacity="0.95" stroke="#7B88A8" stroke-opacity="0.45" stroke-width="0.8"/><g class="edgeLabel" data-edge-id="edge-3" data-label-kind="center"><text x="2622.51" y="122.33" text-anchor="middle" font-family="'trebuchet ms', verdana, arial, sans-serif" font-size="16" fill="#333333"><tspan x="2622.51" dy="0.00">testing</tspan></text></g><path id="edge-4" class="edgePath" data-edge-id="edge-4" d="M 121.344,75.000 L 138.500,75.000 L 138.500,562.919 L 138.500,530.567 L 5326.880,530.567 L 5326.880,562.919 L 5326.880,483.082 L 5344.036,483.082" fill="none" stroke="#2F3B4D" stroke-width="2"    stroke-linecap="round" stroke-linejoin="round" /><rect data-edge-id="edge-4" data-label-kind="center" x="2493.53" y="516.37" width="70.24" height="28.40" rx="2" ry="2" fill="rgba(248,250,252, 0.92)" fill-opacity="0.95" stroke="#7B88A8" stroke-opacity="0.45" stroke-width="0.8"/><g class="edgeLabel" data-edge-id="edge-4" data-label-kind="center"><text x="2528.65" y="534.57" text-anchor="middle" font-family="'trebuchet ms', verdana, arial, sans-serif" font-size="16" fill="#333333"><tspan x="2528.65" dy="0.00">messages</tspan></text></g><path id="edge-5" class="edgePath" data-edge-id="edge-5" d="M 254.425,75.000 L 271.581,75.000 L 271.581,22.377 L 4723.841,22.377 L 4723.841,483.310 L 4702.274,483.310 L 4719.430,483.310" fill="none" stroke="#2F3B4D" stroke-width="2"    stroke-linecap="round" stroke-linejoin="round" /><rect data-edge-id="edge-5" data-label-kind="center" x="2677.53" y="8.18" width="70.24" height="28.40" rx="2" ry="2" fill="rgba(248,250,252, 0.92)" fill-opacity="0.95" stroke="#7B88A8" stroke-opacity="0.45" stroke-width="0.8"/><g class="edgeLabel" data-edge-id="edge-5" data-label-kind="center"><text x="2712.65" y="26.38" text-anchor="middle" font-family="'trebuchet ms', verdana, arial, sans-serif" font-size="16" fill="#333333"><tspan x="2712.65" dy="0.00">messages</tspan></text></g><path id="edge-6" class="edgePath" data-edge-id="edge-6" d="M 392.594,75.000 L 409.750,75.000 L 409.750,182.417 L 4120.542,182.417 L 4120.542,483.143 L 4098.974,483.143 L 4116.130,483.143" fill="none" stroke="#2F3B4D" stroke-width="2"    stroke-linecap="round" stroke-linejoin="round" /><rect data-edge-id="edge-6" data-label-kind="center" x="2337.46" y="168.22" width="70.24" height="28.40" rx="2" ry="2" fill="rgba(248,250,252, 0.92)" fill-opacity="0.95" stroke="#7B88A8" stroke-opacity="0.45" stroke-width="0.8"/><g class="edgeLabel" data-edge-id="edge-6" data-label-kind="center"><text x="2372.58" y="186.42" text-anchor="middle" font-family="'trebuchet ms', verdana, arial, sans-serif" font-size="16" fill="#333333"><tspan x="2372.58" dy="0.00">messages</tspan></text></g><path id="edge-7" class="edgePath" data-edge-id="edge-7" d="M 6096.111,562.400 L 6090.111,562.400 L 5656.311,562.400 L 5656.311,644.991 L 4603.480,644.991 L 4597.480,644.991" fill="none" stroke="#2F3B4D" stroke-width="2"    stroke-linecap="round" stroke-linejoin="round" /><rect data-edge-id="edge-7" data-label-kind="center" x="5322.35" y="630.79" width="131.48" height="28.40" rx="2" ry="2" fill="rgba(248,250,252, 0.92)" fill-opacity="0.95" stroke="#7B88A8" stroke-opacity="0.45" stroke-width="0.8"/><g class="edgeLabel" data-edge-id="edge-7" data-label-kind="center"><text x="5388.09" y="648.99" text-anchor="middle" font-family="'trebuchet ms', verdana, arial, sans-serif" font-size="16" fill="#333333"><tspan x="5388.09" dy="0.00">spawn containers</tspan></text></g><path id="edge-8" class="edgePath" data-edge-id="edge-8" d="M 5270.206,540.400 L 5264.206,540.400 L 4603.480,628.791 L 4597.480,628.791" fill="none" stroke="#2F3B4D" stroke-width="2"    stroke-linecap="round" stroke-linejoin="round" /><rect data-edge-id="edge-8" data-label-kind="center" x="4868.10" y="570.40" width="131.48" height="28.40" rx="2" ry="2" fill="rgba(248,250,252, 0.92)" fill-opacity="0.95" stroke="#7B88A8" stroke-opacity="0.45" stroke-width="0.8"/><g class="edgeLabel" data-edge-id="edge-8" data-label-kind="center"><text x="4933.84" y="588.60" text-anchor="middle" font-family="'trebuchet ms', verdana, arial, sans-serif" font-size="16" fill="#333333"><tspan x="4933.84" dy="0.00">spawn containers</tspan></text></g><path id="edge-9" class="edgePath" data-edge-id="edge-9" d="M 4627.461,541.400 L 4627.461,547.400 L 4533.723,606.417 L 4533.723,612.417" fill="none" stroke="#2F3B4D" stroke-width="2"    stroke-linecap="round" stroke-linejoin="round" /><rect data-edge-id="edge-9" data-label-kind="center" x="4514.85" y="562.71" width="131.48" height="28.40" rx="2" ry="2" fill="rgba(248,250,252, 0.92)" fill-opacity="0.95" stroke="#7B88A8" stroke-opacity="0.45" stroke-width="0.8"/><g class="edgeLabel" data-edge-id="edge-9" data-label-kind="center"><text x="4580.59" y="580.91" text-anchor="middle" font-family="'trebuchet ms', verdana, arial, sans-serif" font-size="16" fill="#333333"><tspan x="4580.59" dy="0.00">spawn containers</tspan></text></g><path id="edge-10" class="edgePath" data-edge-id="edge-10" d="M 4014.509,540.400 L 4020.509,540.400 L 4431.965,639.417 L 4437.965,639.417" fill="none" stroke="#2F3B4D" stroke-width="2"    stroke-linecap="round" stroke-linejoin="round" /><rect data-edge-id="edge-10" data-label-kind="center" x="4160.50" y="575.71" width="131.48" height="28.40" rx="2" ry="2" fill="rgba(248,250,252, 0.92)" fill-opacity="0.95" stroke="#7B88A8" stroke-opacity="0.45" stroke-width="0.8"/><g class="edgeLabel" data-edge-id="edge-10" data-label-kind="center"><text x="4226.24" y="593.91" text-anchor="middle" font-family="'trebuchet ms', verdana, arial, sans-serif" font-size="16" fill="#333333"><tspan x="4226.24" dy="0.00">spawn containers</tspan></text></g><path id="edge-11" class="edgePath" data-edge-id="edge-11" d="M 4597.480,636.891 L 4614.637,636.891 L 4593.069,636.891 L 4593.069,663.895 L 6101.406,663.895 L 6101.406,500.638 L 6090.623,500.638 L 6107.779,500.638" fill="none" stroke="#2F3B4D" stroke-width="2"    stroke-linecap="round" stroke-linejoin="round" /><rect data-edge-id="edge-11" data-label-kind="center" x="5328.92" y="649.70" width="162.10" height="28.40" rx="2" ry="2" fill="rgba(248,250,252, 0.92)" fill-opacity="0.95" stroke="#7B88A8" stroke-opacity="0.45" stroke-width="0.8"/><g class="edgeLabel" data-edge-id="edge-11" data-label-kind="center"><text x="5409.97" y="667.90" text-anchor="middle" font-family="'trebuchet ms', verdana, arial, sans-serif" font-size="16" fill="#333333"><tspan x="5409.97" dy="0.00">ANTHROPIC_BASE_URL</tspan></text></g><path id="edge-12" class="edgePath" data-edge-id="edge-12" d="M 6107.779,485.411 L 6090.623,485.411 L 6090.623,379.411 L 595.317,379.411 L 595.317,279.000 L 578.161,279.000" fill="none" stroke="#2F3B4D" stroke-width="2"    stroke-linecap="round" stroke-linejoin="round" /><rect data-edge-id="edge-12" data-label-kind="center" x="3291.51" y="365.21" width="108.52" height="28.40" rx="2" ry="2" fill="rgba(248,250,252, 0.92)" fill-opacity="0.95" stroke="#7B88A8" stroke-opacity="0.45" stroke-width="0.8"/><g class="edgeLabel" data-edge-id="edge-12" data-label-kind="center"><text x="3345.76" y="383.41" text-anchor="middle" font-family="'trebuchet ms', verdana, arial, sans-serif" font-size="16" fill="#333333"><tspan x="3345.76" dy="0.00">authenticated</tspan></text></g><rect x="441.61" y="252.00" width="136.55" height="54.00" rx="3" ry="3" fill="#ECECFF" stroke="#7B88A8" stroke-width="1" stroke-linejoin="round" stroke-linecap="round"/><text x="509.89" y="283.00" text-anchor="middle" font-family="'trebuchet ms', verdana, arial, sans-serif" font-size="16" fill="#333333"><tspan x="509.89" dy="0.00">Claude API</tspan></text><rect x="38.00" y="48.00" width="83.34" height="54.00" rx="3" ry="3" fill="#ECECFF" stroke="#7B88A8" stroke-width="1" stroke-linejoin="round" stroke-linecap="round"/><text x="79.67" y="79.00" text-anchor="middle" font-family="'trebuchet ms', verdana, arial, sans-serif" font-size="16" fill="#333333"><tspan x="79.67" dy="0.00">Ben</tspan></text><ellipse cx="5715.42" cy="471.13" rx="58.26" ry="7.13" fill="#ECECFF" stroke="#7B88A8" stroke-width="1" stroke-linejoin="round" stroke-linecap="round"/><rect x="5657.15" y="471.13" width="116.52" height="45.14" fill="#ECECFF" stroke="#7B88A8" stroke-width="1" stroke-linejoin="round" stroke-linecap="round"/><ellipse cx="5715.42" cy="516.27" rx="58.26" ry="7.13" fill="none" stroke="#7B88A8" stroke-width="1" stroke-linejoin="round" stroke-linecap="round"/><text x="5715.42" y="497.70" text-anchor="middle" font-family="'trebuchet ms', verdana, arial, sans-serif" font-size="16" fill="#333333"><tspan x="5715.42" dy="0.00">SQLite</tspan></text><ellipse cx="5043.54" cy="461.13" rx="58.26" ry="7.13" fill="#ECECFF" stroke="#7B88A8" stroke-width="1" stroke-linejoin="round" stroke-linecap="round"/><rect x="4985.27" y="461.13" width="116.52" height="45.14" fill="#ECECFF" stroke="#7B88A8" stroke-width="1" stroke-linejoin="round" stroke-linecap="round"/><ellipse cx="5043.54" cy="506.27" rx="58.26" ry="7.13" fill="none" stroke="#7B88A8" stroke-width="1" stroke-linejoin="round" stroke-linecap="round"/><text x="5043.54" y="487.70" text-anchor="middle" font-family="'trebuchet ms', verdana, arial, sans-serif" font-size="16" fill="#333333"><tspan x="5043.54" dy="0.00">SQLite</tspan></text><ellipse cx="4418.93" cy="461.13" rx="58.26" ry="7.13" fill="#ECECFF" stroke="#7B88A8" stroke-width="1" stroke-linejoin="round" stroke-linecap="round"/><rect x="4360.67" y="461.13" width="116.52" height="45.14" fill="#ECECFF" stroke="#7B88A8" stroke-width="1" stroke-linejoin="round" stroke-linecap="round"/><ellipse cx="4418.93" cy="506.27" rx="58.26" ry="7.13" fill="none" stroke="#7B88A8" stroke-width="1" stroke-linejoin="round" stroke-linecap="round"/><text x="4418.93" y="487.70" text-anchor="middle" font-family="'trebuchet ms', verdana, arial, sans-serif" font-size="16" fill="#333333"><tspan x="4418.93" dy="0.00">SQLite</tspan></text><ellipse cx="3815.63" cy="461.13" rx="58.26" ry="7.13" fill="#ECECFF" stroke="#7B88A8" stroke-width="1" stroke-linejoin="round" stroke-linecap="round"/><rect x="3757.37" y="461.13" width="116.52" height="45.14" fill="#ECECFF" stroke="#7B88A8" stroke-width="1" stroke-linejoin="round" stroke-linecap="round"/><ellipse cx="3815.63" cy="506.27" rx="58.26" ry="7.13" fill="none" stroke="#7B88A8" stroke-width="1" stroke-linejoin="round" stroke-linecap="round"/><text x="3815.63" y="487.70" text-anchor="middle" font-family="'trebuchet ms', verdana, arial, sans-serif" font-size="16" fill="#333333"><tspan x="3815.63" dy="0.00">SQLite</tspan></text><rect x="170.36" y="48.00" width="84.06" height="54.00" rx="3" ry="3" fill="#ECECFF" stroke="#7B88A8" stroke-width="1" stroke-linejoin="round" stroke-linecap="round"/><text x="212.39" y="79.00" text-anchor="middle" font-family="'trebuchet ms', verdana, arial, sans-serif" font-size="16" fill="#333333"><tspan x="212.39" dy="0.00">Dad</tspan></text><rect x="4437.96" y="612.42" width="159.52" height="54.00" rx="3" ry="3" fill="#2c2c54" stroke="#474787" stroke-width="1" stroke-linejoin="round" stroke-linecap="round"/><text x="4517.72" y="643.42" text-anchor="middle" font-family="'trebuchet ms', verdana, arial, sans-serif" font-size="16" fill="#333333"><tspan x="4517.72" dy="0.00">Docker Engine</tspan></text><rect x="303.44" y="48.00" width="89.15" height="54.00" rx="3" ry="3" fill="#ECECFF" stroke="#7B88A8" stroke-width="1" stroke-linejoin="round" stroke-linecap="round"/><text x="348.02" y="79.00" text-anchor="middle" font-family="'trebuchet ms', verdana, arial, sans-serif" font-size="16" fill="#333333"><tspan x="348.02" dy="0.00">Mum</tspan></text><rect x="5822.70" y="464.00" width="236.07" height="54.00" rx="3" ry="3" fill="#ECECFF" stroke="#7B88A8" stroke-width="1" stroke-linejoin="round" stroke-linecap="round"/><text x="5940.73" y="495.00" text-anchor="middle" font-family="'trebuchet ms', verdana, arial, sans-serif" font-size="16" fill="#333333"><tspan x="5940.73" dy="0.00">Bot Pool (4 swarm bots)</tspan></text><rect x="6107.78" y="464.00" width="228.41" height="54.00" rx="3" ry="3" fill="#ECECFF" stroke="#7B88A8" stroke-width="1" stroke-linejoin="round" stroke-linecap="round"/><text x="6221.98" y="495.00" text-anchor="middle" font-family="'trebuchet ms', verdana, arial, sans-serif" font-size="16" fill="#333333"><tspan x="6221.98" dy="0.00">Credential Proxy :3001</tspan></text><rect x="5150.81" y="454.00" width="144.21" height="54.00" rx="3" ry="3" fill="#ECECFF" stroke="#7B88A8" stroke-width="1" stroke-linejoin="round" stroke-linecap="round"/><text x="5222.92" y="485.00" text-anchor="middle" font-family="'trebuchet ms', verdana, arial, sans-serif" font-size="16" fill="#333333"><tspan x="5222.92" dy="0.00">Proxy :3002</tspan></text><rect x="4526.21" y="454.00" width="144.21" height="54.00" rx="3" ry="3" fill="#ECECFF" stroke="#7B88A8" stroke-width="1" stroke-linejoin="round" stroke-linecap="round"/><text x="4598.31" y="485.00" text-anchor="middle" font-family="'trebuchet ms', verdana, arial, sans-serif" font-size="16" fill="#333333"><tspan x="4598.31" dy="0.00">Proxy :3874</tspan></text><rect x="3922.91" y="454.00" width="144.21" height="54.00" rx="3" ry="3" fill="#ECECFF" stroke="#7B88A8" stroke-width="1" stroke-linejoin="round" stroke-linecap="round"/><text x="3995.01" y="485.00" text-anchor="middle" font-family="'trebuchet ms', verdana, arial, sans-serif" font-size="16" fill="#333333"><tspan x="3995.01" dy="0.00">Proxy :3751</tspan></text><rect x="627.18" y="48.00" width="174.83" height="54.00" rx="3" ry="3" fill="#ECECFF" stroke="#7B88A8" stroke-width="1" stroke-linejoin="round" stroke-linecap="round"/><text x="714.59" y="79.00" text-anchor="middle" font-family="'trebuchet ms', verdana, arial, sans-serif" font-size="16" fill="#333333"><tspan x="714.59" dy="0.00">Rick (operator)</tspan></text><rect x="6385.21" y="464.00" width="151.86" height="54.00" rx="3" ry="3" fill="#ECECFF" stroke="#7B88A8" stroke-width="1" stroke-linejoin="round" stroke-linecap="round"/><text x="6461.14" y="495.00" text-anchor="middle" font-family="'trebuchet ms', verdana, arial, sans-serif" font-size="16" fill="#333333"><tspan x="6461.14" dy="0.00">@minano_tbot</tspan></text><rect x="5344.04" y="454.00" width="213.10" height="54.00" rx="3" ry="3" fill="#ECECFF" stroke="#7B88A8" stroke-width="1" stroke-linejoin="round" stroke-linecap="round"/><text x="5450.59" y="485.00" text-anchor="middle" font-family="'trebuchet ms', verdana, arial, sans-serif" font-size="16" fill="#333333"><tspan x="5450.59" dy="0.00">@hal_micro_ben_1_bot</tspan></text><rect x="4719.43" y="454.00" width="174.83" height="54.00" rx="3" ry="3" fill="#ECECFF" stroke="#7B88A8" stroke-width="1" stroke-linejoin="round" stroke-linecap="round"/><text x="4806.84" y="485.00" text-anchor="middle" font-family="'trebuchet ms', verdana, arial, sans-serif" font-size="16" fill="#333333"><tspan x="4806.84" dy="0.00">@HALCaptain_bot</tspan></text><rect x="4116.13" y="454.00" width="153.52" height="54.00" rx="3" ry="3" fill="#ECECFF" stroke="#7B88A8" stroke-width="1" stroke-linejoin="round" stroke-linecap="round"/><text x="4192.89" y="485.00" text-anchor="middle" font-family="'trebuchet ms', verdana, arial, sans-serif" font-size="16" fill="#333333"><tspan x="4192.89" dy="0.00">@HALMum_bot</tspan></text><g transform="translate(6385.21 491.00) rotate(0.00)"><polygon points="0,0 -10.40,6.24 -10.40,-6.24" fill="#2F3B4D" stroke="#2F3B4D" stroke-width="2" stroke-linejoin="round" stroke-linecap="round"/></g><g transform="translate(5344.04 472.28) rotate(0.00)"><polygon points="0,0 -10.40,6.24 -10.40,-6.24" fill="#2F3B4D" stroke="#2F3B4D" stroke-width="2" stroke-linejoin="round" stroke-linecap="round"/></g><g transform="translate(4719.43 472.51) rotate(0.00)"><polygon points="0,0 -10.40,6.24 -10.40,-6.24" fill="#2F3B4D" stroke="#2F3B4D" stroke-width="2" stroke-linejoin="round" stroke-linecap="round"/></g><g transform="translate(4116.13 472.34) rotate(0.00)"><polygon points="0,0 -10.40,6.24 -10.40,-6.24" fill="#2F3B4D" stroke="#2F3B4D" stroke-width="2" stroke-linejoin="round" stroke-linecap="round"/></g><g transform="translate(5344.04 483.08) rotate(0.00)"><polygon points="0,0 -10.40,6.24 -10.40,-6.24" fill="#2F3B4D" stroke="#2F3B4D" stroke-width="2" stroke-linejoin="round" stroke-linecap="round"/></g><g transform="translate(4719.43 483.31) rotate(0.00)"><polygon points="0,0 -10.40,6.24 -10.40,-6.24" fill="#2F3B4D" stroke="#2F3B4D" stroke-width="2" stroke-linejoin="round" stroke-linecap="round"/></g><g transform="translate(4116.13 483.14) rotate(0.00)"><polygon points="0,0 -10.40,6.24 -10.40,-6.24" fill="#2F3B4D" stroke="#2F3B4D" stroke-width="2" stroke-linejoin="round" stroke-linecap="round"/></g><g transform="translate(4597.48 644.99) rotate(180.00)"><polygon points="0,0 -10.40,6.24 -10.40,-6.24" fill="#2F3B4D" stroke="#2F3B4D" stroke-width="2" stroke-linejoin="round" stroke-linecap="round"/></g><g transform="translate(4597.48 628.79) rotate(180.00)"><polygon points="0,0 -10.40,6.24 -10.40,-6.24" fill="#2F3B4D" stroke="#2F3B4D" stroke-width="2" stroke-linejoin="round" stroke-linecap="round"/></g><g transform="translate(4533.72 612.42) rotate(90.00)"><polygon points="0,0 -10.40,6.24 -10.40,-6.24" fill="#2F3B4D" stroke="#2F3B4D" stroke-width="2" stroke-linejoin="round" stroke-linecap="round"/></g><g transform="translate(4437.96 639.42) rotate(0.00)"><polygon points="0,0 -10.40,6.24 -10.40,-6.24" fill="#2F3B4D" stroke="#2F3B4D" stroke-width="2" stroke-linejoin="round" stroke-linecap="round"/></g><g transform="translate(6107.78 500.64) rotate(0.00)"><polygon points="0,0 -10.40,6.24 -10.40,-6.24" fill="#2F3B4D" stroke="#2F3B4D" stroke-width="2" stroke-linejoin="round" stroke-linecap="round"/></g><g transform="translate(578.16 279.00) rotate(180.00)"><polygon points="0,0 -10.40,6.24 -10.40,-6.24" fill="#2F3B4D" stroke="#2F3B4D" stroke-width="2" stroke-linejoin="round" stroke-linecap="round"/></g></svg>