<svg xmlns="http://www.w3.org/2000/svg" width="305.65234" height="2342" viewBox="0 0 305.65234 2342"><rect x="0" y="0" width="305.65234" height="2342" fill="#FFFFFF"/><defs><marker id="arrow-0" viewBox="0 0 10 10" refX="5" refY="5" markerUnits="userSpaceOnUse" markerWidth="8" markerHeight="8" orient="auto"><path d="M 0 0 L 10 5 L 0 10 z" fill="#2F3B4D" stroke="#2F3B4D" stroke-width="1" stroke-dasharray="1,0"/></marker><marker id="arrow-start-0" viewBox="0 0 10 10" refX="4.5" refY="5" markerUnits="userSpaceOnUse" markerWidth="8" markerHeight="8" orient="auto"><path d="M 0 5 L 10 10 L 10 0 z" fill="#2F3B4D" stroke="#2F3B4D" stroke-width="1" stroke-dasharray="1,0"/></marker></defs><path id="edge-0" class="edgePath" data-edge-id="edge-0" d="M 136.913,470.000 L 136.913,487.500 L 137.516,502.500 L 137.516,520.000" fill="none" stroke="#2F3B4D" stroke-width="2"    stroke-linecap="round" stroke-linejoin="round" /><path id="edge-1" class="edgePath" data-edge-id="edge-1" d="M 137.516,622.000 L 137.516,639.500 L 150.845,654.500 L 150.845,672.000" fill="none" stroke="#2F3B4D" stroke-width="2"    stroke-linecap="round" stroke-linejoin="round" /><path id="edge-2" class="edgePath" data-edge-id="edge-2" d="M 150.845,774.000 L 150.845,791.500 L 153.366,806.500 L 153.366,824.000" fill="none" stroke="#2F3B4D" stroke-width="2"    stroke-linecap="round" stroke-linejoin="round" /><path id="edge-3" class="edgePath" data-edge-id="edge-3" d="M 153.366,878.000 L 153.366,895.500 L 155.725,910.500 L 155.725,928.000" fill="none" stroke="#2F3B4D" stroke-width="2"    stroke-linecap="round" stroke-linejoin="round" /><path id="edge-4" class="edgePath" data-edge-id="edge-4" d="M 155.725,1054.000 L 155.725,1071.500 L 157.809,1086.500 L 157.809,1104.000" fill="none" stroke="#2F3B4D" stroke-width="2"    stroke-linecap="round" stroke-linejoin="round" /><path id="edge-5" class="edgePath" data-edge-id="edge-5" d="M 157.809,1182.000 L 157.809,1199.500 L 159.556,1214.500 L 159.556,1232.000" fill="none" stroke="#2F3B4D" stroke-width="2"    stroke-linecap="round" stroke-linejoin="round" /><path id="edge-6" class="edgePath" data-edge-id="edge-6" d="M 159.556,1334.000 L 159.556,1351.500 L 160.913,1366.500 L 160.913,1384.000" fill="none" stroke="#2F3B4D" stroke-width="2"    stroke-linecap="round" stroke-linejoin="round" /><path id="edge-7" class="edgePath" data-edge-id="edge-7" d="M 160.913,1510.000 L 160.913,1527.500 L 161.841,1542.500 L 161.841,1560.000" fill="none" stroke="#2F3B4D" stroke-width="2"    stroke-linecap="round" stroke-linejoin="round" /><path id="edge-8" class="edgePath" data-edge-id="edge-8" d="M 161.841,1614.000 L 161.841,1631.500 L 162.312,1646.500 L 162.312,1664.000" fill="none" stroke="#2F3B4D" stroke-width="2"    stroke-linecap="round" stroke-linejoin="round" /><path id="edge-9" class="edgePath" data-edge-id="edge-9" d="M 144.500,1822.000 L 144.500,1839.500 L 145.171,1854.500 L 145.171,1872.000" fill="none" stroke="#2F3B4D" stroke-width="2"    stroke-linecap="round" stroke-linejoin="round" /><path id="edge-10" class="edgePath" data-edge-id="edge-10" d="M 145.171,1926.000 L 145.171,1943.500 L 139.746,2006.500 L 139.746,2024.000" fill="none" stroke="#2F3B4D" stroke-width="2"    stroke-linecap="round" stroke-linejoin="round" /><path id="edge-11" class="edgePath" data-edge-id="edge-11" d="M 139.746,2078.000 L 139.746,2095.500 L 139.625,2158.500 L 139.625,2176.000" fill="none" stroke="#2F3B4D" stroke-width="2"    stroke-linecap="round" stroke-linejoin="round" /><path id="edge-12" class="edgePath" data-edge-id="edge-12" d="M 139.625,2230.000 L 139.625,2247.500 L 139.542,2262.500 L 139.542,2280.000" fill="none" stroke="#2F3B4D" stroke-width="2"    stroke-linecap="round" stroke-linejoin="round" /><path id="edge-13" class="edgePath" data-edge-id="edge-13" d="M 157.779,62.000 L 157.779,79.500 L 158.498,94.500 L 158.498,112.000" fill="none" stroke="#2F3B4D" stroke-width="2"    stroke-linecap="round" stroke-linejoin="round" /><path id="edge-14" class="edgePath" data-edge-id="edge-14" d="M 158.498,214.000 L 158.498,231.500 L 152.826,246.500 L 152.826,264.000" fill="none" stroke="#2F3B4D" stroke-width="2"    stroke-linecap="round" stroke-linejoin="round" /><rect x="8.00" y="264.00" width="289.65" height="102.00" rx="3" ry="3" fill="#ECECFF" stroke="#7B88A8" stroke-width="1" stroke-linejoin="round" stroke-linecap="round"/><text x="152.83" y="295.00" text-anchor="middle" font-family="'trebuchet ms', verdana, arial, sans-serif" font-size="16" fill="#333333"><tspan x="152.83" dy="0.00">Agent capability checks</tspan><tspan x="152.83" dy="24.00">(respond, file read, tool use,</tspan><tspan x="152.83" dy="24.00">memory write)</tspan></text><rect x="20.02" y="824.00" width="266.69" height="54.00" rx="3" ry="3" fill="#ECECFF" stroke="#7B88A8" stroke-width="1" stroke-linejoin="round" stroke-linecap="round"/><text x="153.37" y="855.00" text-anchor="middle" font-family="'trebuchet ms', verdana, arial, sans-serif" font-size="16" fill="#333333"><tspan x="153.37" dy="0.00">npm install + npm run build</tspan></text><rect x="8.00" y="520.00" width="259.03" height="102.00" rx="3" ry="3" fill="#ECECFF" stroke="#7B88A8" stroke-width="1" stroke-linejoin="round" stroke-linecap="round"/><text x="137.52" y="551.00" text-anchor="middle" font-family="'trebuchet ms', verdana, arial, sans-serif" font-size="16" fill="#333333"><tspan x="137.52" dy="0.00">Copy prime source tree</tspan><tspan x="137.52" dy="24.00">(exclude: store/, memory/,</tspan><tspan x="137.52" dy="24.00">groups/, .env*)</tspan></text><rect x="83.95" y="416.00" width="105.93" height="54.00" rx="3" ry="3" fill="#0f3460" stroke="#533483" stroke-width="1" stroke-linejoin="round" stroke-linecap="round"/><text x="136.91" y="447.00" text-anchor="middle" font-family="'trebuchet ms', verdana, arial, sans-serif" font-size="16" fill="#333333"><tspan x="136.91" dy="0.00">Create</tspan></text><rect x="31.40" y="1384.00" width="259.03" height="126.00" rx="3" ry="3" fill="#ECECFF" stroke="#7B88A8" stroke-width="1" stroke-linejoin="round" stroke-linecap="round"/><text x="160.91" y="1415.00" text-anchor="middle" font-family="'trebuchet ms', verdana, arial, sans-serif" font-size="16" fill="#333333"><tspan x="160.91" dy="0.00">Generate</tspan><tspan x="160.91" dy="24.00">ecosystem.config.cjs</tspan><tspan x="160.91" dy="24.00">(hardcode bot token, proxy</tspan><tspan x="160.91" dy="24.00">ports)</tspan></text><rect x="43.60" y="1104.00" width="228.41" height="78.00" rx="3" ry="3" fill="#ECECFF" stroke="#7B88A8" stroke-width="1" stroke-linejoin="round" stroke-linecap="round"/><text x="157.81" y="1135.00" text-anchor="middle" font-family="'trebuchet ms', verdana, arial, sans-serif" font-size="16" fill="#333333"><tspan x="157.81" dy="0.00">Exempt cpSync paths</tspan><tspan x="157.81" dy="24.00">(.claude/skills → 755)</tspan></text><rect x="36.64" y="112.00" width="243.72" height="102.00" rx="3" ry="3" fill="#ECECFF" stroke="#7B88A8" stroke-width="1" stroke-linejoin="round" stroke-linecap="round"/><text x="158.50" y="143.00" text-anchor="middle" font-family="'trebuchet ms', verdana, arial, sans-serif" font-size="16" fill="#333333"><tspan x="158.50" dy="0.00">Infrastructure checks</tspan><tspan x="158.50" dy="24.00">(pm2, DB, schema, proxy,</tspan><tspan x="158.50" dy="24.00">permissions)</tspan></text><rect x="26.21" y="928.00" width="259.03" height="126.00" rx="3" ry="3" fill="#ECECFF" stroke="#7B88A8" stroke-width="1" stroke-linejoin="round" stroke-linecap="round"/><text x="155.72" y="959.00" text-anchor="middle" font-family="'trebuchet ms', verdana, arial, sans-serif" font-size="16" fill="#333333"><tspan x="155.72" dy="0.00">Lock governance</tspan><tspan x="155.72" dy="24.00">(chmod 444/555:</tspan><tspan x="155.72" dy="24.00">CLAUDE.md, .claude/, src/,</tspan><tspan x="155.72" dy="24.00">halos/)</tspan></text><rect x="55.29" y="1560.00" width="213.10" height="54.00" rx="3" ry="3" fill="#ECECFF" stroke="#7B88A8" stroke-width="1" stroke-linejoin="round" stroke-linecap="round"/><text x="161.84" y="1591.00" text-anchor="middle" font-family="'trebuchet ms', verdana, arial, sans-serif" font-size="16" fill="#333333"><tspan x="161.84" dy="0.00">Append to FLEET.yaml</tspan></text><rect x="64.74" y="1768.00" width="159.52" height="54.00" rx="3" ry="3" fill="#16213e" stroke="#0f3460" stroke-width="1" stroke-linejoin="round" stroke-linecap="round"/><text x="144.50" y="1799.00" text-anchor="middle" font-family="'trebuchet ms', verdana, arial, sans-serif" font-size="16" fill="#333333"><tspan x="144.50" dy="0.00">halctl push X</tspan></text><rect x="40.85" y="2024.00" width="197.79" height="54.00" rx="3" ry="3" fill="#ECECFF" stroke="#7B88A8" stroke-width="1" stroke-linejoin="round" stroke-linecap="round"/><text x="139.75" y="2055.00" text-anchor="middle" font-family="'trebuchet ms', verdana, arial, sans-serif" font-size="16" fill="#333333"><tspan x="139.75" dy="0.00">Rebuild TypeScript</tspan></text><rect x="35.26" y="2176.00" width="208.74" height="54.00" rx="3" ry="3" fill="#ECECFF" stroke="#7B88A8" stroke-width="1" stroke-linejoin="round" stroke-linecap="round"/><text x="139.62" y="2207.00" text-anchor="middle" font-family="'trebuchet ms', verdana, arial, sans-serif" font-size="16" fill="#333333"><tspan x="139.62" dy="0.00">Recompose CLAUDE.md</tspan></text><rect x="8.00" y="1872.00" width="274.34" height="54.00" rx="3" ry="3" fill="#ECECFF" stroke="#7B88A8" stroke-width="1" stroke-linejoin="round" stroke-linecap="round"/><text x="145.17" y="1903.00" text-anchor="middle" font-family="'trebuchet ms', verdana, arial, sans-serif" font-size="16" fill="#333333"><tspan x="145.17" dy="0.00">Copy locked files from prime</tspan></text><rect x="40.65" y="2280.00" width="197.79" height="54.00" rx="3" ry="3" fill="#ECECFF" stroke="#7B88A8" stroke-width="1" stroke-linejoin="round" stroke-linecap="round"/><text x="139.54" y="2311.00" text-anchor="middle" font-family="'trebuchet ms', verdana, arial, sans-serif" font-size="16" fill="#333333"><tspan x="139.54" dy="0.00">Re-lock governance</tspan></text><rect x="45.35" y="1232.00" width="228.41" height="102.00" rx="3" ry="3" fill="#ECECFF" stroke="#7B88A8" stroke-width="1" stroke-linejoin="round" stroke-linecap="round"/><text x="159.56" y="1263.00" text-anchor="middle" font-family="'trebuchet ms', verdana, arial, sans-serif" font-size="16" fill="#333333"><tspan x="159.56" dy="0.00">Register operator chat</tspan><tspan x="159.56" dy="24.00">(tg:5967394003 → main</tspan><tspan x="159.56" dy="24.00">group)</tspan></text><rect x="74.19" y="8.00" width="167.17" height="54.00" rx="3" ry="3" fill="#1a1a2e" stroke="#16213e" stroke-width="1" stroke-linejoin="round" stroke-linecap="round"/><text x="157.78" y="39.00" text-anchor="middle" font-family="'trebuchet ms', verdana, arial, sans-serif" font-size="16" fill="#333333"><tspan x="157.78" dy="0.00">halctl smoke X</tspan></text><rect x="97.86" y="1664.00" width="128.90" height="54.00" rx="3" ry="3" fill="#ECECFF" stroke="#7B88A8" stroke-width="1" stroke-linejoin="round" stroke-linecap="round"/><text x="162.31" y="1695.00" text-anchor="middle" font-family="'trebuchet ms', verdana, arial, sans-serif" font-size="16" fill="#333333"><tspan x="162.31" dy="0.00">pm2 start</tspan></text><rect x="13.67" y="672.00" width="274.34" height="102.00" rx="3" ry="3" fill="#ECECFF" stroke="#7B88A8" stroke-width="1" stroke-linejoin="round" stroke-linecap="round"/><text x="150.84" y="703.00" text-anchor="middle" font-family="'trebuchet ms', verdana, arial, sans-serif" font-size="16" fill="#333333"><tspan x="150.84" dy="0.00">Compose CLAUDE.md</tspan><tspan x="150.84" dy="24.00">(base + personality blocks +</tspan><tspan x="150.84" dy="24.00">user context)</tspan></text><g transform="translate(137.52 520.00) rotate(90.00)"><polygon points="0,0 -10.40,6.24 -10.40,-6.24" fill="#2F3B4D" stroke="#2F3B4D" stroke-width="2" stroke-linejoin="round" stroke-linecap="round"/></g><g transform="translate(150.84 672.00) rotate(90.00)"><polygon points="0,0 -10.40,6.24 -10.40,-6.24" fill="#2F3B4D" stroke="#2F3B4D" stroke-width="2" stroke-linejoin="round" stroke-linecap="round"/></g><g transform="translate(153.37 824.00) rotate(90.00)"><polygon points="0,0 -10.40,6.24 -10.40,-6.24" fill="#2F3B4D" stroke="#2F3B4D" stroke-width="2" stroke-linejoin="round" stroke-linecap="round"/></g><g transform="translate(155.72 928.00) rotate(90.00)"><polygon points="0,0 -10.40,6.24 -10.40,-6.24" fill="#2F3B4D" stroke="#2F3B4D" stroke-width="2" stroke-linejoin="round" stroke-linecap="round"/></g><g transform="translate(157.81 1104.00) rotate(90.00)"><polygon points="0,0 -10.40,6.24 -10.40,-6.24" fill="#2F3B4D" stroke="#2F3B4D" stroke-width="2" stroke-linejoin="round" stroke-linecap="round"/></g><g transform="translate(159.56 1232.00) rotate(90.00)"><polygon points="0,0 -10.40,6.24 -10.40,-6.24" fill="#2F3B4D" stroke="#2F3B4D" stroke-width="2" stroke-linejoin="round" stroke-linecap="round"/></g><g transform="translate(160.91 1384.00) rotate(90.00)"><polygon points="0,0 -10.40,6.24 -10.40,-6.24" fill="#2F3B4D" stroke="#2F3B4D" stroke-width="2" stroke-linejoin="round" stroke-linecap="round"/></g><g transform="translate(161.84 1560.00) rotate(90.00)"><polygon points="0,0 -10.40,6.24 -10.40,-6.24" fill="#2F3B4D" stroke="#2F3B4D" stroke-width="2" stroke-linejoin="round" stroke-linecap="round"/></g><g transform="translate(162.31 1664.00) rotate(90.00)"><polygon points="0,0 -10.40,6.24 -10.40,-6.24" fill="#2F3B4D" stroke="#2F3B4D" stroke-width="2" stroke-linejoin="round" stroke-linecap="round"/></g><g transform="translate(145.17 1872.00) rotate(90.00)"><polygon points="0,0 -10.40,6.24 -10.40,-6.24" fill="#2F3B4D" stroke="#2F3B4D" stroke-width="2" stroke-linejoin="round" stroke-linecap="round"/></g><g transform="translate(139.75 2024.00) rotate(90.00)"><polygon points="0,0 -10.40,6.24 -10.40,-6.24" fill="#2F3B4D" stroke="#2F3B4D" stroke-width="2" stroke-linejoin="round" stroke-linecap="round"/></g><g transform="translate(139.62 2176.00) rotate(90.00)"><polygon points="0,0 -10.40,6.24 -10.40,-6.24" fill="#2F3B4D" stroke="#2F3B4D" stroke-width="2" stroke-linejoin="round" stroke-linecap="round"/></g><g transform="translate(139.54 2280.00) rotate(90.00)"><polygon points="0,0 -10.40,6.24 -10.40,-6.24" fill="#2F3B4D" stroke="#2F3B4D" stroke-width="2" stroke-linejoin="round" stroke-linecap="round"/></g><g transform="translate(158.50 112.00) rotate(90.00)"><polygon points="0,0 -10.40,6.24 -10.40,-6.24" fill="#2F3B4D" stroke="#2F3B4D" stroke-width="2" stroke-linejoin="round" stroke-linecap="round"/></g><g transform="translate(152.83 264.00) rotate(90.00)"><polygon points="0,0 -10.40,6.24 -10.40,-6.24" fill="#2F3B4D" stroke="#2F3B4D" stroke-width="2" stroke-linejoin="round" stroke-linecap="round"/></g></svg>