<svg xmlns="http://www.w3.org/2000/svg" width="560.7322" height="526.7114" viewBox="0 0 560.7322 526.7114"><rect x="0" y="0" width="560.7322" height="526.7114" fill="#FFFFFF"/><defs><marker id="arrow-0" viewBox="0 0 10 10" refX="5" refY="5" markerUnits="userSpaceOnUse" markerWidth="8" markerHeight="8" orient="auto"><path d="M 0 0 L 10 5 L 0 10 z" fill="#2F3B4D" stroke="#2F3B4D" stroke-width="1" stroke-dasharray="1,0"/></marker><marker id="arrow-start-0" viewBox="0 0 10 10" refX="4.5" refY="5" markerUnits="userSpaceOnUse" markerWidth="8" markerHeight="8" orient="auto"><path d="M 0 5 L 10 10 L 10 0 z" fill="#2F3B4D" stroke="#2F3B4D" stroke-width="1" stroke-dasharray="1,0"/></marker><marker id="arrow-state-0" viewBox="0 0 20 14" refX="19" refY="7" markerUnits="userSpaceOnUse" markerWidth="20" markerHeight="14" orient="auto"><path d="M 19 7 L 9 13 L 14 7 L 9 1 Z" fill="#2F3B4D" stroke="#2F3B4D" stroke-width="1" stroke-dasharray="1,0"/></marker></defs><path id="edge-0" class="edgePath" data-edge-id="edge-0" d="M 188.769,23.200 L 188.769,29.200 L 188.315,61.553 L 188.315,67.553" fill="none" stroke="#2F3B4D" stroke-width="1" marker-end="url(#arrow-state-0)"   stroke-linecap="round" stroke-linejoin="round" /><rect data-edge-id="edge-0" data-label-kind="center" x="175.78" y="33.58" width="25.52" height="23.60" rx="2" ry="2" fill="rgba(248,250,252, 0.92)" fill-opacity="0.70" stroke="#7B88A8" stroke-opacity="0.25" stroke-width="0.8"/><g class="edgeLabel" data-edge-id="edge-0" data-label-kind="center"><text x="188.54" y="48.78" text-anchor="middle" font-family="'trebuchet ms', verdana, arial, sans-serif" font-size="13.6" fill="#333333"><tspan x="188.54" dy="0.00">add</tspan></text></g><path id="edge-1" class="edgePath" data-edge-id="edge-1" d="M 155.634,91.073 L 144.719,91.073 L 117.960,91.073 L 117.960,182.465 L 107.045,182.465" fill="none" stroke="#2F3B4D" stroke-width="1" marker-end="url(#arrow-state-0)"   stroke-linecap="round" stroke-linejoin="round" /><rect data-edge-id="edge-1" data-label-kind="center" x="101.95" y="111.59" width="32.03" height="23.60" rx="2" ry="2" fill="rgba(248,250,252, 0.92)" fill-opacity="0.70" stroke="#7B88A8" stroke-opacity="0.25" stroke-width="0.8"/><g class="edgeLabel" data-edge-id="edge-1" data-label-kind="center"><text x="117.96" y="126.79" text-anchor="middle" font-family="'trebuchet ms', verdana, arial, sans-serif" font-size="13.6" fill="#333333"><tspan x="117.96" dy="0.00">plan</tspan></text></g><path id="edge-2" class="edgePath" data-edge-id="edge-2" d="M 220.996,95.772 L 231.912,95.772 L 257.594,169.059 L 268.510,169.059" fill="none" stroke="#2F3B4D" stroke-width="1" marker-end="url(#arrow-state-0)"   stroke-linecap="round" stroke-linejoin="round" /><rect data-edge-id="edge-2" data-label-kind="center" x="225.49" y="120.62" width="38.53" height="23.60" rx="2" ry="2" fill="rgba(248,250,252, 0.92)" fill-opacity="0.70" stroke="#7B88A8" stroke-opacity="0.25" stroke-width="0.8"/><g class="edgeLabel" data-edge-id="edge-2" data-label-kind="center"><text x="244.75" y="135.82" text-anchor="middle" font-family="'trebuchet ms', verdana, arial, sans-serif" font-size="13.6" fill="#333333"><tspan x="244.75" dy="0.00">start</tspan></text></g><path id="edge-3" class="edgePath" data-edge-id="edge-3" d="M 188.315,114.593 L 188.315,125.508 L 187.754,148.030 L 187.754,158.945" fill="none" stroke="#2F3B4D" stroke-width="1" marker-end="url(#arrow-state-0)"   stroke-linecap="round" stroke-linejoin="round" /><rect data-edge-id="edge-3" data-label-kind="center" x="168.77" y="124.97" width="38.53" height="23.60" rx="2" ry="2" fill="rgba(248,250,252, 0.92)" fill-opacity="0.70" stroke="#7B88A8" stroke-opacity="0.25" stroke-width="0.8"/><g class="edgeLabel" data-edge-id="edge-3" data-label-kind="center"><text x="188.03" y="140.17" text-anchor="middle" font-family="'trebuchet ms', verdana, arial, sans-serif" font-size="13.6" fill="#333333"><tspan x="188.03" dy="0.00">defer</tspan></text></g><path id="edge-4" class="edgePath" data-edge-id="edge-4" d="M 220.996,105.180 L 231.912,105.180 L 230.711,105.180 L 230.711,102.711 L 518.711,102.711 L 518.711,374.711 L 422.711,374.711 L 422.711,358.711 L 390.711,358.711 L 390.711,352.197 L 392.250,352.197 L 403.165,352.197" fill="none" stroke="#2F3B4D" stroke-width="1" marker-end="url(#arrow-state-0)"   stroke-linecap="round" stroke-linejoin="round" /><rect data-edge-id="edge-4" data-label-kind="center" x="496.19" y="157.10" width="45.04" height="23.60" rx="2" ry="2" fill="rgba(248,250,252, 0.92)" fill-opacity="0.70" stroke="#7B88A8" stroke-opacity="0.25" stroke-width="0.8"/><g class="edgeLabel" data-edge-id="edge-4" data-label-kind="center"><text x="518.71" y="172.30" text-anchor="middle" font-family="'trebuchet ms', verdana, arial, sans-serif" font-size="13.6" fill="#333333"><tspan x="518.71" dy="0.00">cancel</tspan></text></g><path id="edge-5" class="edgePath" data-edge-id="edge-5" d="M 57.522,205.985 L 57.522,216.901 L 57.522,214.711 L 54.711,214.711 L 54.711,518.711 L 278.711,518.711 L 278.711,438.711 L 294.711,438.711 L 294.711,422.711 L 300.521,422.711 L 300.521,422.208 L 300.521,433.123" fill="none" stroke="#2F3B4D" stroke-width="1" marker-end="url(#arrow-state-0)"   stroke-linecap="round" stroke-linejoin="round" /><rect data-edge-id="edge-5" data-label-kind="center" x="48.85" y="501.31" width="45.04" height="23.60" rx="2" ry="2" fill="rgba(248,250,252, 0.92)" fill-opacity="0.70" stroke="#7B88A8" stroke-opacity="0.25" stroke-width="0.8"/><g class="edgeLabel" data-edge-id="edge-5" data-label-kind="center"><text x="71.37" y="516.51" text-anchor="middle" font-family="'trebuchet ms', verdana, arial, sans-serif" font-size="13.6" fill="#333333"><tspan x="71.37" dy="0.00">review</tspan></text></g><path id="edge-6" class="edgePath" data-edge-id="edge-6" d="M 348.521,433.123 L 348.521,422.208 L 552.732,422.208 L 552.732,204.901 L 349.309,204.901 L 349.309,216.901 L 349.309,205.985" fill="none" stroke="#2F3B4D" stroke-width="1" marker-end="url(#arrow-state-0)"   stroke-linecap="round" stroke-linejoin="round" /><rect data-edge-id="edge-6" data-label-kind="center" x="505.17" y="296.15" width="51.55" height="23.60" rx="2" ry="2" fill="rgba(248,250,252, 0.92)" fill-opacity="0.70" stroke="#7B88A8" stroke-opacity="0.25" stroke-width="0.8"/><g class="edgeLabel" data-edge-id="edge-6" data-label-kind="center"><text x="530.94" y="311.35" text-anchor="middle" font-family="'trebuchet ms', verdana, arial, sans-serif" font-size="13.6" fill="#333333"><tspan x="530.94" dy="0.00">approve</tspan></text></g><path id="edge-7" class="edgePath" data-edge-id="edge-7" d="M 316.521,433.123 L 316.521,422.208 L 316.521,493.420 L 89.522,493.420 L 89.522,216.901 L 89.522,205.985" fill="none" stroke="#2F3B4D" stroke-width="1" marker-end="url(#arrow-state-0)"   stroke-linecap="round" stroke-linejoin="round" /><rect data-edge-id="edge-7" data-label-kind="center" x="77.85" y="481.62" width="45.04" height="23.60" rx="2" ry="2" fill="rgba(248,250,252, 0.92)" fill-opacity="0.70" stroke="#7B88A8" stroke-opacity="0.25" stroke-width="0.8"/><g class="edgeLabel" data-edge-id="edge-7" data-label-kind="center"><text x="100.37" y="496.82" text-anchor="middle" font-family="'trebuchet ms', verdana, arial, sans-serif" font-size="13.6" fill="#333333"><tspan x="100.37" dy="0.00">revise</tspan></text></g><path id="edge-8" class="edgePath" data-edge-id="edge-8" d="M 268.510,189.521 L 257.594,189.521 L 258.855,263.274 L 247.939,263.274" fill="none" stroke="#2F3B4D" stroke-width="1" marker-end="url(#arrow-state-0)"   stroke-linecap="round" stroke-linejoin="round" /><rect data-edge-id="edge-8" data-label-kind="center" x="235.70" y="214.60" width="45.04" height="23.60" rx="2" ry="2" fill="rgba(248,250,252, 0.92)" fill-opacity="0.70" stroke="#7B88A8" stroke-opacity="0.25" stroke-width="0.8"/><g class="edgeLabel" data-edge-id="edge-8" data-label-kind="center"><text x="258.22" y="229.80" text-anchor="middle" font-family="'trebuchet ms', verdana, arial, sans-serif" font-size="13.6" fill="#333333"><tspan x="258.22" dy="0.00">review</tspan></text></g><path id="edge-9" class="edgePath" data-edge-id="edge-9" d="M 321.340,205.985 L 321.340,216.901 L 330.671,239.423 L 330.671,250.338" fill="none" stroke="#2F3B4D" stroke-width="1" marker-end="url(#arrow-state-0)"   stroke-linecap="round" stroke-linejoin="round" /><rect data-edge-id="edge-9" data-label-kind="center" x="296.98" y="216.36" width="58.05" height="23.60" rx="2" ry="2" fill="rgba(248,250,252, 0.92)" fill-opacity="0.70" stroke="#7B88A8" stroke-opacity="0.25" stroke-width="0.8"/><g class="edgeLabel" data-edge-id="edge-9" data-label-kind="center"><text x="326.01" y="231.56" text-anchor="middle" font-family="'trebuchet ms', verdana, arial, sans-serif" font-size="13.6" fill="#333333"><tspan x="326.01" dy="0.00">executor</tspan></text></g><path id="edge-10" class="edgePath" data-edge-id="edge-10" d="M 358.632,205.985 L 358.632,216.901 L 358.632,222.704 L 440.061,222.704 L 440.061,239.423 L 440.061,250.338" fill="none" stroke="#2F3B4D" stroke-width="1" marker-end="url(#arrow-state-0)"   stroke-linecap="round" stroke-linejoin="round" /><rect data-edge-id="edge-10" data-label-kind="center" x="385.54" y="210.90" width="38.53" height="23.60" rx="2" ry="2" fill="rgba(248,250,252, 0.92)" fill-opacity="0.70" stroke="#7B88A8" stroke-opacity="0.25" stroke-width="0.8"/><g class="edgeLabel" data-edge-id="edge-10" data-label-kind="center"><text x="404.80" y="226.10" text-anchor="middle" font-family="'trebuchet ms', verdana, arial, sans-serif" font-size="13.6" fill="#333333"><tspan x="404.80" dy="0.00">block</tspan></text></g><path id="edge-11" class="edgePath" data-edge-id="edge-11" d="M 314.671,297.378 L 314.671,308.293 L 314.671,310.711 L 294.711,310.711 L 294.711,326.711 L 278.711,326.711 L 278.711,374.711 L 262.711,374.711 L 262.711,406.711 L 230.711,406.711 L 230.711,422.711 L 223.075,422.711 L 223.075,422.208 L 223.075,433.123" fill="none" stroke="#2F3B4D" stroke-width="1" marker-end="url(#arrow-state-0)"   stroke-linecap="round" stroke-linejoin="round" /><rect data-edge-id="edge-11" data-label-kind="center" x="252.06" y="362.91" width="51.55" height="23.60" rx="2" ry="2" fill="rgba(248,250,252, 0.92)" fill-opacity="0.70" stroke="#7B88A8" stroke-opacity="0.25" stroke-width="0.8"/><g class="edgeLabel" data-edge-id="edge-11" data-label-kind="center"><text x="277.83" y="378.11" text-anchor="middle" font-family="'trebuchet ms', verdana, arial, sans-serif" font-size="13.6" fill="#333333"><tspan x="277.83" dy="0.00">success</tspan></text></g><path id="edge-12" class="edgePath" data-edge-id="edge-12" d="M 330.671,297.378 L 330.671,308.293 L 330.877,330.815 L 330.877,341.731" fill="none" stroke="#2F3B4D" stroke-width="1" marker-end="url(#arrow-state-0)"   stroke-linecap="round" stroke-linejoin="round" /><rect data-edge-id="edge-12" data-label-kind="center" x="311.51" y="307.75" width="38.53" height="23.60" rx="2" ry="2" fill="rgba(248,250,252, 0.92)" fill-opacity="0.70" stroke="#7B88A8" stroke-opacity="0.25" stroke-width="0.8"/><g class="edgeLabel" data-edge-id="edge-12" data-label-kind="center"><text x="330.77" y="322.95" text-anchor="middle" font-family="'trebuchet ms', verdana, arial, sans-serif" font-size="13.6" fill="#333333"><tspan x="330.77" dy="0.00">error</tspan></text></g><path id="edge-13" class="edgePath" data-edge-id="edge-13" d="M 346.671,250.338 L 346.671,239.423 L 330.663,216.901 L 330.663,205.985" fill="none" stroke="#2F3B4D" stroke-width="1" marker-end="url(#arrow-state-0)"   stroke-linecap="round" stroke-linejoin="round" /><rect data-edge-id="edge-13" data-label-kind="center" x="319.40" y="216.36" width="38.53" height="23.60" rx="2" ry="2" fill="rgba(248,250,252, 0.92)" fill-opacity="0.70" stroke="#7B88A8" stroke-opacity="0.25" stroke-width="0.8"/><g class="edgeLabel" data-edge-id="edge-13" data-label-kind="center"><text x="338.67" y="231.56" text-anchor="middle" font-family="'trebuchet ms', verdana, arial, sans-serif" font-size="13.6" fill="#333333"><tspan x="338.67" dy="0.00">retry</tspan></text></g><path id="edge-14" class="edgePath" data-edge-id="edge-14" d="M 206.838,297.378 L 206.838,308.293 L 205.943,330.815 L 205.943,341.731" fill="none" stroke="#2F3B4D" stroke-width="1" marker-end="url(#arrow-state-0)"   stroke-linecap="round" stroke-linejoin="round" /><rect data-edge-id="edge-14" data-label-kind="center" x="180.62" y="307.75" width="51.55" height="23.60" rx="2" ry="2" fill="rgba(248,250,252, 0.92)" fill-opacity="0.70" stroke="#7B88A8" stroke-opacity="0.25" stroke-width="0.8"/><g class="edgeLabel" data-edge-id="edge-14" data-label-kind="center"><text x="206.39" y="322.95" text-anchor="middle" font-family="'trebuchet ms', verdana, arial, sans-serif" font-size="13.6" fill="#333333"><tspan x="206.39" dy="0.00">testing</tspan></text></g><path id="edge-15" class="edgePath" data-edge-id="edge-15" d="M 247.939,272.682 L 258.855,272.682 L 257.594,196.577 L 268.510,196.577" fill="none" stroke="#2F3B4D" stroke-width="1" marker-end="url(#arrow-state-0)"   stroke-linecap="round" stroke-linejoin="round" /><rect data-edge-id="edge-15" data-label-kind="center" x="235.70" y="222.83" width="45.04" height="23.60" rx="2" ry="2" fill="rgba(248,250,252, 0.92)" fill-opacity="0.70" stroke="#7B88A8" stroke-opacity="0.25" stroke-width="0.8"/><g class="edgeLabel" data-edge-id="edge-15" data-label-kind="center"><text x="258.22" y="238.03" text-anchor="middle" font-family="'trebuchet ms', verdana, arial, sans-serif" font-size="13.6" fill="#333333"><tspan x="258.22" dy="0.00">rework</tspan></text></g><path id="edge-16" class="edgePath" data-edge-id="edge-16" d="M 222.838,297.378 L 222.838,308.293 L 222.838,296.293 L 142.471,296.293 L 142.471,434.208 L 211.801,434.208 L 211.801,422.208 L 211.801,433.123" fill="none" stroke="#2F3B4D" stroke-width="1" marker-end="url(#arrow-state-0)"   stroke-linecap="round" stroke-linejoin="round" /><rect data-edge-id="edge-16" data-label-kind="center" x="126.46" y="347.93" width="32.03" height="23.60" rx="2" ry="2" fill="rgba(248,250,252, 0.92)" fill-opacity="0.70" stroke="#7B88A8" stroke-opacity="0.25" stroke-width="0.8"/><g class="edgeLabel" data-edge-id="edge-16" data-label-kind="center"><text x="142.47" y="363.13" text-anchor="middle" font-family="'trebuchet ms', verdana, arial, sans-serif" font-size="13.6" fill="#333333"><tspan x="142.47" dy="0.00">done</tspan></text></g><path id="edge-17" class="edgePath" data-edge-id="edge-17" d="M 205.943,388.771 L 205.943,399.686 L 201.997,422.208 L 201.997,433.123" fill="none" stroke="#2F3B4D" stroke-width="1" marker-end="url(#arrow-state-0)"   stroke-linecap="round" stroke-linejoin="round" /><rect data-edge-id="edge-17" data-label-kind="center" x="187.96" y="399.15" width="32.03" height="23.60" rx="2" ry="2" fill="rgba(248,250,252, 0.92)" fill-opacity="0.70" stroke="#7B88A8" stroke-opacity="0.25" stroke-width="0.8"/><g class="edgeLabel" data-edge-id="edge-17" data-label-kind="center"><text x="203.97" y="414.35" text-anchor="middle" font-family="'trebuchet ms', verdana, arial, sans-serif" font-size="13.6" fill="#333333"><tspan x="203.97" dy="0.00">done</tspan></text></g><path id="edge-18" class="edgePath" data-edge-id="edge-18" d="M 221.943,341.731 L 221.943,330.815 L 265.674,330.815 L 265.674,216.901 L 309.405,216.901 L 309.405,205.985" fill="none" stroke="#2F3B4D" stroke-width="1" marker-end="url(#arrow-state-0)"   stroke-linecap="round" stroke-linejoin="round" /><rect data-edge-id="edge-18" data-label-kind="center" x="243.15" y="262.06" width="45.04" height="23.60" rx="2" ry="2" fill="rgba(248,250,252, 0.92)" fill-opacity="0.70" stroke="#7B88A8" stroke-opacity="0.25" stroke-width="0.8"/><g class="edgeLabel" data-edge-id="edge-18" data-label-kind="center"><text x="265.67" y="277.26" text-anchor="middle" font-family="'trebuchet ms', verdana, arial, sans-serif" font-size="13.6" fill="#333333"><tspan x="265.67" dy="0.00">rework</tspan></text></g><path id="edge-19" class="edgePath" data-edge-id="edge-19" d="M 346.877,341.731 L 346.877,330.815 L 346.877,326.711 L 342.711,326.711 L 390.711,326.711 L 390.711,182.711 L 342.711,182.711 L 342.711,214.711 L 339.986,214.711 L 339.986,216.901 L 339.986,205.985" fill="none" stroke="#2F3B4D" stroke-width="1" marker-end="url(#arrow-state-0)"   stroke-linecap="round" stroke-linejoin="round" /><rect data-edge-id="edge-19" data-label-kind="center" x="371.44" y="228.59" width="38.53" height="23.60" rx="2" ry="2" fill="rgba(248,250,252, 0.92)" fill-opacity="0.70" stroke="#7B88A8" stroke-opacity="0.25" stroke-width="0.8"/><g class="edgeLabel" data-edge-id="edge-19" data-label-kind="center"><text x="390.71" y="243.79" text-anchor="middle" font-family="'trebuchet ms', verdana, arial, sans-serif" font-size="13.6" fill="#333333"><tspan x="390.71" dy="0.00">retry</tspan></text></g><path id="edge-20" class="edgePath" data-edge-id="edge-20" d="M 330.877,388.771 L 330.877,399.686 L 332.521,422.208 L 332.521,433.123" fill="none" stroke="#2F3B4D" stroke-width="1" marker-end="url(#arrow-state-0)"   stroke-linecap="round" stroke-linejoin="round" /><rect data-edge-id="edge-20" data-label-kind="center" x="270.14" y="399.15" width="123.12" height="23.60" rx="2" ry="2" fill="rgba(248,250,252, 0.92)" fill-opacity="0.70" stroke="#7B88A8" stroke-opacity="0.25" stroke-width="0.8"/><g class="edgeLabel" data-edge-id="edge-20" data-label-kind="center"><text x="331.70" y="414.35" text-anchor="middle" font-family="'trebuchet ms', verdana, arial, sans-serif" font-size="13.6" fill="#333333"><tspan x="331.70" dy="0.00">revise (agent-job)</tspan></text></g><path id="edge-21" class="edgePath" data-edge-id="edge-21" d="M 456.061,250.338 L 456.061,239.423 L 456.061,222.358 L 367.955,222.358 L 367.955,216.901 L 367.955,205.985" fill="none" stroke="#2F3B4D" stroke-width="1" marker-end="url(#arrow-state-0)"   stroke-linecap="round" stroke-linejoin="round" /><rect data-edge-id="edge-21" data-label-kind="center" x="392.04" y="210.56" width="51.55" height="23.60" rx="2" ry="2" fill="rgba(248,250,252, 0.92)" fill-opacity="0.70" stroke="#7B88A8" stroke-opacity="0.25" stroke-width="0.8"/><g class="edgeLabel" data-edge-id="edge-21" data-label-kind="center"><text x="417.81" y="225.76" text-anchor="middle" font-family="'trebuchet ms', verdana, arial, sans-serif" font-size="13.6" fill="#333333"><tspan x="417.81" dy="0.00">unblock</tspan></text></g><path id="edge-22" class="edgePath" data-edge-id="edge-22" d="M 456.061,297.378 L 456.061,308.293 L 456.898,330.815 L 456.898,341.731" fill="none" stroke="#2F3B4D" stroke-width="1" marker-end="url(#arrow-state-0)"   stroke-linecap="round" stroke-linejoin="round" /><rect data-edge-id="edge-22" data-label-kind="center" x="433.96" y="307.75" width="45.04" height="23.60" rx="2" ry="2" fill="rgba(248,250,252, 0.92)" fill-opacity="0.70" stroke="#7B88A8" stroke-opacity="0.25" stroke-width="0.8"/><g class="edgeLabel" data-edge-id="edge-22" data-label-kind="center"><text x="456.48" y="322.95" text-anchor="middle" font-family="'trebuchet ms', verdana, arial, sans-serif" font-size="13.6" fill="#333333"><tspan x="456.48" dy="0.00">cancel</tspan></text></g><path id="edge-23" class="edgePath" data-edge-id="edge-23" d="M 203.754,158.945 L 203.754,148.030 L 204.315,125.508 L 204.315,114.593" fill="none" stroke="#2F3B4D" stroke-width="1" marker-end="url(#arrow-state-0)"   stroke-linecap="round" stroke-linejoin="round" /><rect data-edge-id="edge-23" data-label-kind="center" x="181.51" y="124.97" width="45.04" height="23.60" rx="2" ry="2" fill="rgba(248,250,252, 0.92)" fill-opacity="0.70" stroke="#7B88A8" stroke-opacity="0.25" stroke-width="0.8"/><g class="edgeLabel" data-edge-id="edge-23" data-label-kind="center"><text x="204.03" y="140.17" text-anchor="middle" font-family="'trebuchet ms', verdana, arial, sans-serif" font-size="13.6" fill="#333333"><tspan x="204.03" dy="0.00">reopen</tspan></text></g><path id="edge-24" class="edgePath" data-edge-id="edge-24" d="M 239.181,456.643 L 245.181,456.643 L 235.925,454.428 L 241.925,454.428" fill="none" stroke="#2F3B4D" stroke-width="1" marker-end="url(#arrow-state-0)"   stroke-linecap="round" stroke-linejoin="round" /><path id="edge-25" class="edgePath" data-edge-id="edge-25" d="M 403.165,378.304 L 397.165,378.304 L 397.165,414.812 L 262.796,414.812 L 262.796,451.320 L 256.796,451.320" fill="none" stroke="#2F3B4D" stroke-width="1" marker-end="url(#arrow-state-0)"   stroke-linecap="round" stroke-linejoin="round" /><circle cx="249.41" cy="453.12" r="7.60" fill="#7B88A8" stroke="#7B88A8" stroke-width="1" stroke-linejoin="round" stroke-linecap="round"/><circle cx="249.41" cy="453.12" r="3.60" fill="#FFFFFF" stroke="#FFFFFF" stroke-width="1.2" stroke-linejoin="round" stroke-linecap="round"/><circle cx="188.81" cy="15.60" r="7.60" fill="#2F3B4D" stroke="#2F3B4D" stroke-width="1" stroke-linejoin="round" stroke-linecap="round"/><rect x="410.75" y="250.34" width="90.62" height="47.04" rx="10" ry="10" fill="#ECECFF" stroke="#7B88A8" stroke-width="1" stroke-linejoin="round" stroke-linecap="round"/><text x="456.06" y="277.26" text-anchor="middle" font-family="'trebuchet ms', verdana, arial, sans-serif" font-size="13.6" fill="#333333"><tspan x="456.06" dy="0.00">blocked</tspan></text><rect x="403.16" y="341.73" width="107.47" height="47.04" rx="10" ry="10" fill="#ECECFF" stroke="#7B88A8" stroke-width="1" stroke-linejoin="round" stroke-linecap="round"/><text x="456.90" y="368.65" text-anchor="middle" font-family="'trebuchet ms', verdana, arial, sans-serif" font-size="13.6" fill="#333333"><tspan x="456.90" dy="0.00">cancelled</tspan></text><rect x="138.23" y="158.95" width="99.04" height="47.04" rx="10" ry="10" fill="#ECECFF" stroke="#7B88A8" stroke-width="1" stroke-linejoin="round" stroke-linecap="round"/><text x="187.75" y="185.87" text-anchor="middle" font-family="'trebuchet ms', verdana, arial, sans-serif" font-size="13.6" fill="#333333"><tspan x="187.75" dy="0.00">deferred</tspan></text><rect x="173.82" y="433.12" width="65.36" height="47.04" rx="10" ry="10" fill="#ECECFF" stroke="#7B88A8" stroke-width="1" stroke-linejoin="round" stroke-linecap="round"/><text x="206.50" y="460.04" text-anchor="middle" font-family="'trebuchet ms', verdana, arial, sans-serif" font-size="13.6" fill="#333333"><tspan x="206.50" dy="0.00">done</tspan></text><rect x="289.77" y="341.73" width="82.20" height="47.04" rx="10" ry="10" fill="#ECECFF" stroke="#7B88A8" stroke-width="1" stroke-linejoin="round" stroke-linecap="round"/><text x="330.88" y="368.65" text-anchor="middle" font-family="'trebuchet ms', verdana, arial, sans-serif" font-size="13.6" fill="#333333"><tspan x="330.88" dy="0.00">failed</tspan></text><rect x="268.51" y="158.95" width="124.31" height="47.04" rx="10" ry="10" fill="#ECECFF" stroke="#7B88A8" stroke-width="1" stroke-linejoin="round" stroke-linecap="round"/><text x="330.66" y="185.87" text-anchor="middle" font-family="'trebuchet ms', verdana, arial, sans-serif" font-size="13.6" fill="#333333"><tspan x="330.66" dy="0.00">in_progress</tspan></text><rect x="155.63" y="67.55" width="65.36" height="47.04" rx="10" ry="10" fill="#ECECFF" stroke="#7B88A8" stroke-width="1" stroke-linejoin="round" stroke-linecap="round"/><text x="188.32" y="94.47" text-anchor="middle" font-family="'trebuchet ms', verdana, arial, sans-serif" font-size="13.6" fill="#333333"><tspan x="188.32" dy="0.00">open</tspan></text><rect x="270.37" y="433.12" width="124.31" height="47.04" rx="10" ry="10" fill="#ECECFF" stroke="#7B88A8" stroke-width="1" stroke-linejoin="round" stroke-linecap="round"/><text x="332.52" y="460.04" text-anchor="middle" font-family="'trebuchet ms', verdana, arial, sans-serif" font-size="13.6" fill="#333333"><tspan x="332.52" dy="0.00">plan_review</tspan></text><rect x="8.00" y="158.95" width="99.04" height="47.04" rx="10" ry="10" fill="#ECECFF" stroke="#7B88A8" stroke-width="1" stroke-linejoin="round" stroke-linecap="round"/><text x="57.52" y="185.87" text-anchor="middle" font-family="'trebuchet ms', verdana, arial, sans-serif" font-size="13.6" fill="#333333"><tspan x="57.52" dy="0.00">planning</tspan></text><rect x="165.74" y="250.34" width="82.20" height="47.04" rx="10" ry="10" fill="#ECECFF" stroke="#7B88A8" stroke-width="1" stroke-linejoin="round" stroke-linecap="round"/><text x="206.84" y="277.26" text-anchor="middle" font-family="'trebuchet ms', verdana, arial, sans-serif" font-size="13.6" fill="#333333"><tspan x="206.84" dy="0.00">review</tspan></text><rect x="285.36" y="250.34" width="90.62" height="47.04" rx="10" ry="10" fill="#ECECFF" stroke="#7B88A8" stroke-width="1" stroke-linejoin="round" stroke-linecap="round"/><text x="330.67" y="277.26" text-anchor="middle" font-family="'trebuchet ms', verdana, arial, sans-serif" font-size="13.6" fill="#333333"><tspan x="330.67" dy="0.00">running</tspan></text><rect x="160.63" y="341.73" width="90.62" height="47.04" rx="10" ry="10" fill="#ECECFF" stroke="#7B88A8" stroke-width="1" stroke-linejoin="round" stroke-linecap="round"/><text x="205.94" y="368.65" text-anchor="middle" font-family="'trebuchet ms', verdana, arial, sans-serif" font-size="13.6" fill="#333333"><tspan x="205.94" dy="0.00">testing</tspan></text></svg>